# xmcd
#
# Track frame offsets:
#	150
#	29462
#	48367
#	87857
#	112907
#	166087
#	207042
# Disc length: 3423 seconds
# Revision: 1
# Processed by: cddbd v1.5.2PL0 Copyright (c) Steve Scherf et al.
#
# Submitted via: libkcddb 0.31
#
DISCID=4b0d5d07
DTITLE=Jackie O Motherfucker - Unity Sound vol 2 JOMF live
DYEAR=1900
DGENRE=Unknown
TTITLE0=charms of the raven
TTITLE1=trans canada no 1
TTITLE2=charms of the viper
TTITLE3=douc langur
TTITLE4=ray o graph
TTITLE5=echoes of lunch
TTITLE6=the pigeon
EXTD=
EXTT0=
EXTT1=
EXTT2=
EXTT3=
EXTT4=
EXTT5=
EXTT6=
PLAYORDER=
